Patient4_TMGait_0pt5_02_right_23_EMG.mot
version=1
nRows=16
nColumns=33
inDegrees=no
endheader
time	1LAddLong	2LGlutMax	3LGlutMed	4LIliopsoas	5LSemiMemb	6LBicFemLong	7LRecFem	8LVastMed	9LVastLat	10LGasMed	11LTibAnt	12lTibPost	13LPeroneusLong	14LSol	15LExtDigLong	16LFlexDigLong	17RAddLong	18RGlutMax	19RGlutMed	20RIliopsoas	21RSemiMemb	22RBicFemLong	23RRecFem	24RVastMed	25RVastLat	26RGasMed	27RTibAnt	28RTibPost	29RPeroneusLong	30RSol	31RExtDigLong	32RFlexDigLong
29.93	0.003967	-0.072784	0.075684	-0.007935	-0.032196	0.02182	0.13794	-0.001526	-0.015564	0.011902	0.028992	0.011902	0.017395	-0.042114	-0.062256	0.001526	0.006866	-0.098419	-0.16235	0.027771	0.039825	0.003052	-0.13443	-0.1828	-0.031586	0.002594	-0.42099	-0.009918	0.13473	-0.06485	-0.001831	-0.00351
29.931	0.003815	-0.097961	-0.0354	0.011444	-0.037537	0.014038	0.10483	-0.010986	-0.033875	0.037842	-0.012665	0.01236	-0.13229	0.009003	-0.031128	0.009308	0.011139	-0.13519	0.001526	0.067902	0.04837	-0.003967	-0.15823	-0.18066	-0.021057	-0.00061	-1.0429	-0.010376	-0.38574	-0.001526	-0.002289	0.001068
29.932	-0.002594	-0.083466	-0.13534	0.007782	0.003204	-0.052795	0.11108	-0.008698	-0.040436	0.084534	-0.061035	0.008545	-0.41107	0.025635	0.023193	0.000305	0.007324	-0.083466	-0.005035	0.12573	0.041351	-0.001831	-0.14328	-0.17502	-0.023956	-0.003967	-0.24857	-0.008087	-0.17197	0.04364	0.001831	-0.002747
29.933	-0.002136	-0.055695	-0.084229	-0.004425	0.033112	-0.021667	0.066223	-0.001526	-0.030823	0.061188	-0.030212	0.008392	0.094299	-0.006104	0.040588	-0.010071	0.002899	-0.029755	-0.050507	0.071259	0.038757	0.007629	-0.21698	-0.13504	-0.035858	-0.005493	-0.18372	-0.007324	-0.022888	0.050659	0.001068	-0.003967
29.934	-0.00946	-0.047302	0.055542	-0.005951	0.014954	0.015259	-0.008545	0.007477	-0.007782	0.041199	-0.018463	0.009613	0.87418	-0.032349	0.016632	-0.003357	0.00412	-0.063782	-0.023193	-0.006714	0.036774	-0.007477	-0.13245	-0.16632	-0.05722	-0.001678	-0.46005	-0.002747	0.046844	0.12848	0.011749	-0.004578
29.935	-0.010681	-0.027771	0.058136	0.006256	-0.001526	0.039215	-0.10178	0.019379	0.010834	0.06073	-0.001526	0.011444	0.69107	-0.15381	-0.01236	-0.006256	0.004425	-0.052032	0.023346	0.001373	0.024719	-0.003815	-0.094757	-0.17532	-0.050507	-0.004578	-0.27695	-0.010071	0.079193	0.17288	-0.001678	-0.013428
29.936	-0.002899	-0.098724	-0.020447	0.009308	-0.020752	-0.010223	-0.1709	0.009766	0.081482	0.043793	-0.007782	0.012054	0.16998	-0.1239	-0.019989	-0.003357	0.002594	0.021667	0.2385	-0.000305	0.033569	-0.014496	-0.024109	-0.16235	-0.061646	-0.011292	-0.06134	-0.003815	0.030212	0.14877	0.000916	-0.009918
29.937	0.006104	-0.078888	-0.003662	-0.012817	-0.041199	-0.006866	-0.081329	0.002899	0.091095	0.019226	-0.027008	0.010376	-0.046234	-0.005188	0.063477	-0.011749	-0.000305	-0.067902	0.22064	-0.019226	0.028534	-0.007172	0.092773	-0.14328	-0.034485	-0.015106	0.12634	-0.001221	-0.11948	0.15259	-0.00061	-0.014954
29.938	-0.008545	-0.072327	-0.060883	0.00885	-0.036926	0.004883	0.012665	0.004272	0.053253	-0.005035	-0.011597	0.012054	-0.083008	-0.006561	0.075378	0.001373	0.006561	-0.021515	0.12741	-0.074615	0.032501	0.010529	0.17532	-0.14252	-0.05127	-0.018921	0.039673	-0.00473	-0.24155	0.10346	0.012207	-0.016174
29.939	-0.013885	-0.04364	-0.057983	0.002747	-0.054321	0.021057	0.047302	0.00061	0.013428	-0.011444	0.000458	0.008698	-0.36896	-0.041351	-0.011902	0.003052	0.006104	0.012054	0.079193	-0.036926	0.027924	0.005493	0.10086	-0.11047	-0.015106	-0.018768	-0.090027	-0.004578	-0.29923	-0.056	0.001068	-0.015564
29.94	-0.011749	-0.032501	-0.039368	0	-0.052185	0.009155	0.028534	-0.001373	0.025177	-0.007935	0.043945	0.006104	-0.34714	0.010071	0.024414	-0.010071	0.017242	-0.003815	0	-0.032806	0.027618	0.003662	0.19409	-0.097046	-0.039825	-0.020447	-0.13001	-0.003967	-0.24887	-0.1532	0.002136	-0.013123
29.941	-0.014191	-0.047607	0.020294	0.007172	-0.067139	-0.033112	-0.006104	-0.00412	0.097504	-0.007477	0.066071	0.008545	-0.1471	-0.019379	0.006104	-0.010681	0.000305	0.005646	0.075378	-0.036469	0.036011	0.024872	0.27176	-0.041046	-0.014496	-0.004425	0.007782	0	-0.074921	-0.17181	0.005493	-0.005646
29.942	-0.026703	-0.032501	0.026855	0.004425	-0.013275	-0.015259	-0.013123	0.002747	0.11169	-0.028381	0.055084	0.003815	-0.18768	0.033722	-0.006561	0.000763	-0.006409	-0.012817	0.075378	0.019379	0.04303	0.02655	0.36804	-0.016174	-0.001984	-0.003357	0.40115	-0.005493	0.095825	-0.12421	0	-0.00946
29.943	-0.033569	-0.032349	0.024109	0.008087	-0.1152	0.015411	-0.004578	0.00824	0.032501	-0.018616	0.043488	-0.002136	-0.31372	0.048981	0.004883	-0.00946	0.001068	0.001221	-0.065002	0.054169	0.039978	0.024719	0.42801	-0.00824	0.021057	-0.007782	0.79681	-0.003204	0.13702	-0.1181	0.001831	-0.004425
29.944	-0.030212	-0.066681	0.001526	0.007324	-0.13382	-0.01709	-0.006561	0.006256	0.040283	0.016785	0.032196	-0.00351	0.071411	0.012512	-0.015411	-0.006866	-0.00061	-0.027924	-0.10666	0.037384	0.034485	0.01709	0.35309	-0.011902	0.012665	-0.004272	0.48019	-0.003815	0.17822	-0.10559	0.001831	-0.00351
29.945	-0.007629	-0.015411	-0.018463	0.002289	0.010681	-0.085144	0.046082	0.002594	0.012665	0.016785	0.023193	0.00412	0.47211	0.016937	-0.02243	0.000763	-0.004425	0.016937	-0.15259	0.088043	0.02594	0.027924	0.2861	-0.058746	-0.003662	-0.016022	-0.24353	-0.003052	0.15396	0.024719	-0.00061	-0.003052
